<svg width="899" height="200" viewBox="0 0 899 200" fill="none" xmlns="http://www.w3.org/2000/svg">
<path d="M288 84.7214C288 63.6169 321.12 56.9007 332.108 75.7771L343.749 95.7771C345.366 98.5542 346.207 101.616 346.207 104.721V180C346.207 191.046 335.783 200 322.924 200H311.283C298.424 200 288 191.046 288 180V84.7214Z" fill="black"/>
<path d="M429.793 20C429.793 8.9543 440.217 0 453.076 0H464.717C477.576 0 488 8.9543 488 20V115.279C488 136.383 454.88 143.099 443.892 124.223L432.251 104.223C430.634 101.446 429.793 98.3835 429.793 95.2786V20Z" fill="black"/>
<path d="M316.151 28.1514C305.098 17.0985 314.241 1.33514e-06 331.203 1.33514e-06C335.609 1.33514e-06 339.889 1.25934 343.369 3.57952L409 47.3337C434.779 64.5195 420.631 100 388 100L316.151 28.1514Z" fill="black"/>
<path d="M367 152.666C341.221 135.481 355.369 100 388 100L459.849 171.849C470.902 182.902 461.759 200 444.797 200C440.391 200 436.111 198.741 432.631 196.42L367 152.666Z" fill="black"/>
<path d="M73.56 85.6C73.56 90.72 72.36 95.4 69.96 99.64C67.64 103.8 64.08 107.16 59.28 109.72C54.56 112.2 48.76 113.44 41.88 113.44H30.24V142H6.72V57.4H41.88C48.68 57.4 54.44 58.6 59.16 61C63.96 63.4 67.56 66.72 69.96 70.96C72.36 75.2 73.56 80.08 73.56 85.6ZM39.6 94.72C46.24 94.72 49.56 91.68 49.56 85.6C49.56 79.44 46.24 76.36 39.6 76.36H30.24V94.72H39.6ZM106.529 53.2V142H83.0091V53.2H106.529ZM116.083 108.28C116.083 101.32 117.323 95.24 119.803 90.04C122.363 84.84 125.803 80.84 130.123 78.04C134.523 75.24 139.403 73.84 144.763 73.84C149.403 73.84 153.403 74.76 156.763 76.6C160.123 78.44 162.723 80.92 164.563 84.04V74.68H188.083V142H164.563V132.64C162.723 135.76 160.083 138.24 156.643 140.08C153.283 141.92 149.323 142.84 144.763 142.84C139.403 142.84 134.523 141.44 130.123 138.64C125.803 135.84 122.363 131.84 119.803 126.64C117.323 121.36 116.083 115.24 116.083 108.28ZM164.563 108.28C164.563 103.96 163.363 100.56 160.963 98.08C158.643 95.6 155.763 94.36 152.323 94.36C148.803 94.36 145.883 95.6 143.563 98.08C141.243 100.48 140.083 103.88 140.083 108.28C140.083 112.6 141.243 116.04 143.563 118.6C145.883 121.08 148.803 122.32 152.323 122.32C155.763 122.32 158.643 121.08 160.963 118.6C163.363 116.12 164.563 112.68 164.563 108.28ZM273.966 74.68L231.246 174.04H205.686L221.766 139.12L194.166 74.68H220.326L234.486 112.84L248.166 74.68H273.966ZM552.646 142L535.846 110.8H533.326V142H509.806V57.4H546.886C553.686 57.4 559.446 58.6 564.166 61C568.886 63.32 572.446 66.56 574.846 70.72C577.246 74.8 578.446 79.4 578.446 84.52C578.446 90.28 576.846 95.36 573.646 99.76C570.526 104.08 565.926 107.16 559.846 109L578.926 142H552.646ZM533.326 94.72H544.966C548.166 94.72 550.566 93.96 552.166 92.44C553.766 90.92 554.566 88.72 554.566 85.84C554.566 83.12 553.726 81 552.046 79.48C550.446 77.88 548.086 77.08 544.966 77.08H533.326V94.72ZM653.462 107.56C653.462 109.4 653.342 111.24 653.102 113.08H608.582C608.822 116.76 609.822 119.52 611.582 121.36C613.422 123.12 615.742 124 618.542 124C622.462 124 625.262 122.24 626.942 118.72H652.022C650.982 123.36 648.942 127.52 645.902 131.2C642.942 134.8 639.182 137.64 634.622 139.72C630.062 141.8 625.022 142.84 619.502 142.84C612.862 142.84 606.942 141.44 601.742 138.64C596.622 135.84 592.582 131.84 589.622 126.64C586.742 121.44 585.302 115.32 585.302 108.28C585.302 101.24 586.742 95.16 589.622 90.04C592.502 84.84 596.502 80.84 601.622 78.04C606.822 75.24 612.782 73.84 619.502 73.84C626.142 73.84 632.022 75.2 637.142 77.92C642.262 80.64 646.262 84.56 649.142 89.68C652.022 94.72 653.462 100.68 653.462 107.56ZM629.462 101.68C629.462 98.8 628.502 96.56 626.582 94.96C624.662 93.28 622.262 92.44 619.382 92.44C616.502 92.44 614.142 93.24 612.302 94.84C610.462 96.36 609.262 98.64 608.702 101.68H629.462ZM659.247 108.28C659.247 101.32 660.487 95.24 662.967 90.04C665.527 84.84 668.967 80.84 673.287 78.04C677.687 75.24 682.567 73.84 687.927 73.84C692.567 73.84 696.567 74.76 699.927 76.6C703.287 78.44 705.887 80.92 707.727 84.04V74.68H731.247V142H707.727V132.64C705.887 135.76 703.247 138.24 699.807 140.08C696.447 141.92 692.487 142.84 687.927 142.84C682.567 142.84 677.687 141.44 673.287 138.64C668.967 135.84 665.527 131.84 662.967 126.64C660.487 121.36 659.247 115.24 659.247 108.28ZM707.727 108.28C707.727 103.96 706.527 100.56 704.127 98.08C701.807 95.6 698.927 94.36 695.487 94.36C691.967 94.36 689.047 95.6 686.727 98.08C684.407 100.48 683.247 103.88 683.247 108.28C683.247 112.6 684.407 116.04 686.727 118.6C689.047 121.08 691.967 122.32 695.487 122.32C698.927 122.32 701.807 121.08 704.127 118.6C706.527 116.12 707.727 112.68 707.727 108.28ZM740.81 108.28C740.81 101.32 742.05 95.24 744.53 90.04C747.09 84.84 750.57 80.84 754.97 78.04C759.37 75.24 764.25 73.84 769.61 73.84C773.93 73.84 777.77 74.76 781.13 76.6C784.57 78.36 787.25 80.8 789.17 83.92V53.2H812.81V142H789.17V132.64C787.33 135.76 784.73 138.24 781.37 140.08C778.01 141.92 774.05 142.84 769.49 142.84C764.13 142.84 759.25 141.44 754.85 138.64C750.53 135.84 747.09 131.84 744.53 126.64C742.05 121.36 740.81 115.24 740.81 108.28ZM789.29 108.28C789.29 103.96 788.09 100.56 785.69 98.08C783.37 95.6 780.49 94.36 777.05 94.36C773.53 94.36 770.61 95.6 768.29 98.08C765.97 100.48 764.81 103.88 764.81 108.28C764.81 112.6 765.97 116.04 768.29 118.6C770.61 121.08 773.53 122.32 777.05 122.32C780.49 122.32 783.37 121.08 785.69 118.6C788.09 116.12 789.29 112.68 789.29 108.28ZM898.692 74.68L855.972 174.04H830.412L846.492 139.12L818.892 74.68H845.052L859.212 112.84L872.892 74.68H898.692Z" fill="black"/>
</svg>
