<svg width="446" height="100" viewBox="0 0 446 100" fill="none" xmlns="http://www.w3.org/2000/svg">
<path d="M140.64 42.3607C140.64 31.8084 157.2 28.4503 162.694 37.8886L168.515 47.8885C169.323 49.2771 169.744 50.8082 169.744 52.3607V90C169.744 95.5228 164.532 100 158.102 100H152.281C145.852 100 140.64 95.5228 140.64 90V42.3607Z" fill="white"/>
<path d="M211.536 10C211.536 4.47715 216.748 0 223.178 0H228.999C235.428 0 240.64 4.47715 240.64 10V57.6393C240.64 68.1916 224.08 71.5497 218.586 62.1115L212.765 52.1115C211.957 50.7229 211.536 49.1918 211.536 47.6393V10Z" fill="white"/>
<path d="M154.716 14.0757C149.189 8.54924 153.76 6.67572e-07 162.242 6.67572e-07C164.444 6.67572e-07 166.584 0.629669 168.325 1.78976L201.14 23.6668C214.03 32.2597 206.956 50 190.64 50L154.716 14.0757Z" fill="white"/>
<path d="M180.14 76.3332C167.25 67.7403 174.324 50 190.64 50L226.564 85.9243C232.091 91.4508 227.52 100 219.038 100C216.836 100 214.696 99.3703 212.955 98.2102L180.14 76.3332Z" fill="white"/>
<path d="M33.42 42.8C33.42 45.36 32.82 47.7 31.62 49.82C30.46 51.9 28.68 53.58 26.28 54.86C23.92 56.1 21.02 56.72 17.58 56.72H11.76V71H0V28.7H17.58C20.98 28.7 23.86 29.3 26.22 30.5C28.62 31.7 30.42 33.36 31.62 35.48C32.82 37.6 33.42 40.04 33.42 42.8ZM16.44 47.36C19.76 47.36 21.42 45.84 21.42 42.8C21.42 39.72 19.76 38.18 16.44 38.18H11.76V47.36H16.44Z" fill="white"/>
<path d="M49.9045 26.6V71H38.1445V26.6H49.9045Z" fill="white"/>
<path d="M54.6816 54.14C54.6816 50.66 55.3016 47.62 56.5416 45.02C57.8216 42.42 59.5416 40.42 61.7016 39.02C63.9016 37.62 66.3416 36.92 69.0216 36.92C71.3416 36.92 73.3416 37.38 75.0216 38.3C76.7016 39.22 78.0016 40.46 78.9216 42.02V37.34H90.6816V71H78.9216V66.32C78.0016 67.88 76.6816 69.12 74.9616 70.04C73.2816 70.96 71.3016 71.42 69.0216 71.42C66.3416 71.42 63.9016 70.72 61.7016 69.32C59.5416 67.92 57.8216 65.92 56.5416 63.32C55.3016 60.68 54.6816 57.62 54.6816 54.14ZM78.9216 54.14C78.9216 51.98 78.3216 50.28 77.1216 49.04C75.9616 47.8 74.5216 47.18 72.8016 47.18C71.0416 47.18 69.5816 47.8 68.4216 49.04C67.2616 50.24 66.6816 51.94 66.6816 54.14C66.6816 56.3 67.2616 58.02 68.4216 59.3C69.5816 60.54 71.0416 61.16 72.8016 61.16C74.5216 61.16 75.9616 60.54 77.1216 59.3C78.3216 58.06 78.9216 56.34 78.9216 54.14Z" fill="white"/>
<path d="M133.623 37.34L112.263 87.02H99.4828L107.523 69.56L93.7228 37.34H106.803L113.883 56.42L120.723 37.34H133.623Z" fill="white"/>
<path d="M272.963 71L264.563 55.4H263.303V71H251.543V28.7H270.083C273.483 28.7 276.363 29.3 278.723 30.5C281.083 31.66 282.863 33.28 284.063 35.36C285.263 37.4 285.863 39.7 285.863 42.26C285.863 45.14 285.063 47.68 283.463 49.88C281.903 52.04 279.603 53.58 276.563 54.5L286.103 71H272.963ZM263.303 47.36H269.123C270.723 47.36 271.923 46.98 272.723 46.22C273.523 45.46 273.923 44.36 273.923 42.92C273.923 41.56 273.503 40.5 272.663 39.74C271.863 38.94 270.683 38.54 269.123 38.54H263.303V47.36Z" fill="white"/>
<path d="M323.371 53.78C323.371 54.7 323.311 55.62 323.191 56.54H300.931C301.051 58.38 301.551 59.76 302.431 60.68C303.351 61.56 304.511 62 305.911 62C307.871 62 309.271 61.12 310.111 59.36H322.651C322.131 61.68 321.111 63.76 319.591 65.6C318.111 67.4 316.231 68.82 313.951 69.86C311.671 70.9 309.151 71.42 306.391 71.42C303.071 71.42 300.111 70.72 297.511 69.32C294.951 67.92 292.931 65.92 291.451 63.32C290.011 60.72 289.291 57.66 289.291 54.14C289.291 50.62 290.011 47.58 291.451 45.02C292.891 42.42 294.891 40.42 297.451 39.02C300.051 37.62 303.031 36.92 306.391 36.92C309.711 36.92 312.651 37.6 315.211 38.96C317.771 40.32 319.771 42.28 321.211 44.84C322.651 47.36 323.371 50.34 323.371 53.78ZM311.371 50.84C311.371 49.4 310.891 48.28 309.931 47.48C308.971 46.64 307.771 46.22 306.331 46.22C304.891 46.22 303.711 46.62 302.791 47.42C301.871 48.18 301.271 49.32 300.991 50.84H311.371Z" fill="white"/>
<path d="M326.264 54.14C326.264 50.66 326.884 47.62 328.124 45.02C329.404 42.42 331.124 40.42 333.284 39.02C335.484 37.62 337.924 36.92 340.604 36.92C342.924 36.92 344.924 37.38 346.604 38.3C348.284 39.22 349.584 40.46 350.504 42.02V37.34H362.264V71H350.504V66.32C349.584 67.88 348.264 69.12 346.544 70.04C344.864 70.96 342.884 71.42 340.604 71.42C337.924 71.42 335.484 70.72 333.284 69.32C331.124 67.92 329.404 65.92 328.124 63.32C326.884 60.68 326.264 57.62 326.264 54.14ZM350.504 54.14C350.504 51.98 349.904 50.28 348.704 49.04C347.544 47.8 346.104 47.18 344.384 47.18C342.624 47.18 341.164 47.8 340.004 49.04C338.844 50.24 338.264 51.94 338.264 54.14C338.264 56.3 338.844 58.02 340.004 59.3C341.164 60.54 342.624 61.16 344.384 61.16C346.104 61.16 347.544 60.54 348.704 59.3C349.904 58.06 350.504 56.34 350.504 54.14Z" fill="white"/>
<path d="M367.045 54.14C367.045 50.66 367.665 47.62 368.905 45.02C370.185 42.42 371.925 40.42 374.125 39.02C376.325 37.62 378.765 36.92 381.445 36.92C383.605 36.92 385.525 37.38 387.205 38.3C388.925 39.18 390.265 40.4 391.225 41.96V26.6H403.045V71H391.225V66.32C390.305 67.88 389.005 69.12 387.325 70.04C385.645 70.96 383.665 71.42 381.385 71.42C378.705 71.42 376.265 70.72 374.065 69.32C371.905 67.92 370.185 65.92 368.905 63.32C367.665 60.68 367.045 57.62 367.045 54.14ZM391.285 54.14C391.285 51.98 390.685 50.28 389.485 49.04C388.325 47.8 386.885 47.18 385.165 47.18C383.405 47.18 381.945 47.8 380.785 49.04C379.625 50.24 379.045 51.94 379.045 54.14C379.045 56.3 379.625 58.02 380.785 59.3C381.945 60.54 383.405 61.16 385.165 61.16C386.885 61.16 388.325 60.54 389.485 59.3C390.685 58.06 391.285 56.34 391.285 54.14Z" fill="white"/>
<path d="M445.986 37.34L424.626 87.02H411.846L419.886 69.56L406.086 37.34H419.166L426.246 56.42L433.086 37.34H445.986Z" fill="white"/>
</svg>
